<svg width="185" height="20" viewBox="0 0 185 20" fill="none" xmlns="http://www.w3.org/2000/svg">
<path d="M14.118 0.0101318H9.81361C9.64843 0.0101318 9.5124 0.145594 9.5124 0.310083V7.32508H4.9068V0.310083C4.9068 0.145594 4.77077 0.0101318 4.60559 0.0101318H0.30121C0.13603 0.0101318 0 0.145594 0 0.310083V19.3328C0 19.4973 0.13603 19.6328 0.30121 19.6328H4.59588C4.76106 19.6328 4.89709 19.4973 4.89709 19.3328V11.6986H9.50268V19.3328C9.50268 19.4973 9.63871 19.6328 9.80389 19.6328H14.118C14.2832 19.6328 14.4192 19.4973 14.4192 19.3328V0.310083C14.4192 0.145594 14.2832 0.0101318 14.118 0.0101318Z" fill="white"/>
<path d="M24.5341 4.20898C23.2612 4.20898 22.0175 4.4025 20.8516 4.77986C19.6953 5.15722 18.5973 5.63134 17.5868 6.20221C17.4411 6.27962 17.3925 6.46346 17.4702 6.6086L18.9957 9.40492C19.0734 9.55006 19.2581 9.60811 19.4038 9.53071C20.2006 9.134 20.9681 8.80502 21.6677 8.5728C22.3479 8.34058 23.028 8.22447 23.6888 8.22447C24.6118 8.22447 25.3017 8.38896 25.7486 8.71793C26.0984 8.97918 26.3219 9.30816 26.4288 9.7339C24.845 9.84033 23.4653 10.0145 22.3285 10.2564C21.0945 10.5273 20.0645 10.8853 19.2678 11.3207C18.4516 11.7755 17.8492 12.3367 17.4702 12.9947C17.0913 13.6526 16.9067 14.4267 16.9067 15.2878C16.9067 15.9458 17.033 16.5651 17.2662 17.1263C17.5091 17.6875 17.8492 18.1809 18.2864 18.6067C18.7237 19.0324 19.2581 19.3711 19.8896 19.6033C20.5115 19.8355 21.2111 19.9613 21.9884 19.9613C22.96 19.9613 23.9219 19.7581 24.8353 19.3711C25.6223 19.0324 26.3608 18.6163 27.0409 18.1325L27.2838 19.3711C27.313 19.5162 27.4393 19.613 27.585 19.613H31.1024C31.2676 19.613 31.4036 19.4775 31.4036 19.313V11.0305C31.4036 8.73729 30.7818 7.00531 29.5478 5.87323C28.3138 4.77018 26.6328 4.20898 24.5341 4.20898ZM26.4871 14.8331C26.0304 15.1717 25.5543 15.4523 25.0491 15.6846C24.5244 15.9264 23.9608 16.0522 23.3584 16.0522C22.7948 16.0522 22.3479 15.9555 22.037 15.762C21.7649 15.5975 21.6386 15.3459 21.6386 14.9879C21.6386 14.7363 21.7066 14.4944 21.8426 14.2719C21.9787 14.0493 22.2313 13.8461 22.5811 13.672C22.9697 13.4785 23.5041 13.314 24.1746 13.1882C24.7964 13.0721 25.564 12.9753 26.4774 12.9173L26.4871 14.8331Z" fill="white"/>
<path d="M46.9403 14.6783C46.8917 14.6105 46.8237 14.5622 46.7363 14.5428C46.6585 14.5235 46.5711 14.5428 46.5031 14.5912C46.0172 14.9492 45.4537 15.2588 44.8318 15.5201C44.2294 15.7716 43.559 15.9071 42.84 15.9071C41.7031 15.9071 40.8092 15.5684 40.1096 14.8911C39.4101 14.2042 39.07 13.2946 39.07 12.1045C39.07 10.9144 39.4198 10.0048 40.1485 9.31785C40.8675 8.64054 41.8197 8.29221 42.9857 8.29221C43.9865 8.29221 45.0165 8.65989 46.027 9.3759C46.163 9.47266 46.3476 9.44363 46.4448 9.30817L48.4366 6.65699C48.5338 6.5312 48.5144 6.35704 48.3978 6.2506C47.7468 5.67005 46.9306 5.17659 45.9784 4.78955C44.0934 4.03483 41.5768 4.02516 39.4586 4.74117C38.4093 5.0895 37.4765 5.60232 36.6797 6.26996C35.883 6.93759 35.232 7.76971 34.7559 8.74697C34.2798 9.72424 34.0369 10.8563 34.0369 12.1045C34.0369 13.343 34.2506 14.4751 34.6782 15.4523C35.1057 16.4296 35.7081 17.2714 36.466 17.939C37.2239 18.6067 38.1178 19.1195 39.1283 19.4678C40.1291 19.8161 41.2368 20 42.4222 20C43.4424 20 44.5112 19.8258 45.6092 19.4775C46.7071 19.1292 47.7176 18.5583 48.631 17.8036C48.7476 17.7068 48.7767 17.5326 48.6893 17.4069L46.9403 14.6783Z" fill="white"/>
<path d="M60.7665 10.837L66.1105 5.07015C66.1883 4.98307 66.2174 4.85728 66.1688 4.74117C66.1203 4.63474 66.0134 4.55733 65.8871 4.55733H61.1746C61.0871 4.55733 61.0094 4.59603 60.9511 4.65409L56.0346 9.8984V0.299952C56.0346 0.135462 55.8986 0 55.7334 0H51.429C51.2638 0 51.1278 0.135462 51.1278 0.299952V19.3227C51.1278 19.4872 51.2638 19.6226 51.429 19.6226H55.7334C55.8986 19.6226 56.0346 19.4872 56.0346 19.3227V15.8587L57.8419 14.1074L61.4175 19.4872C61.4758 19.5743 61.573 19.6226 61.6701 19.6226H66.3243C66.4409 19.6226 66.5381 19.5549 66.5964 19.4582C66.6449 19.3614 66.6449 19.2356 66.5769 19.1485L60.7665 10.837Z" fill="white"/>
<path d="M80.015 6.28933C79.4223 5.63137 78.6645 5.11855 77.7705 4.75086C76.8766 4.38318 75.8467 4.19934 74.7001 4.19934C73.6896 4.19934 72.6986 4.38318 71.7658 4.74119C70.8233 5.0992 69.978 5.63137 69.2492 6.30868C68.5205 6.98599 67.9278 7.81811 67.4906 8.7857C67.0533 9.75328 66.8298 10.866 66.8298 12.0852C66.8298 13.3334 67.0533 14.4461 67.4906 15.4137C67.9278 16.3812 68.5302 17.2134 69.2784 17.8907C70.0265 18.568 70.9205 19.0905 71.931 19.4388C72.9318 19.7872 74.0297 19.971 75.1957 19.971C76.1965 19.971 77.2361 19.8162 78.2661 19.5066C79.3057 19.1969 80.2579 18.7712 81.0936 18.2293C81.2296 18.1423 81.2685 17.9681 81.2004 17.8326L79.8013 15.2782C79.7235 15.1331 79.5389 15.075 79.3932 15.1524C78.7713 15.4717 78.1592 15.7136 77.5859 15.8781C77.0224 16.0329 76.4102 16.1103 75.7787 16.1103C74.7682 16.1103 73.9034 15.8781 73.1941 15.4137C72.582 15.017 72.1739 14.4074 71.9407 13.5656H81.3462C81.4919 13.5656 81.6085 13.4688 81.6474 13.3237C81.6863 13.1398 81.7251 12.8883 81.7737 12.5496C81.8126 12.2206 81.832 11.8433 81.832 11.4466C81.832 10.4306 81.6765 9.46301 81.3753 8.59218C81.0644 7.72135 80.6077 6.93761 80.015 6.28933ZM71.8824 10.3048C72.067 9.59847 72.3974 9.05662 72.8735 8.70829C73.437 8.29223 74.0686 8.07936 74.7876 8.07936C75.6815 8.07936 76.3325 8.31158 76.7212 8.75667C77.0612 9.16306 77.2653 9.67588 77.3139 10.2951H71.8824V10.3048Z" fill="white"/>
<path d="M98.2525 4.81856C97.8056 4.61537 97.3683 4.46056 96.9505 4.3638C96.5327 4.25736 95.9789 4.20898 95.3085 4.20898C94.0939 4.20898 92.9377 4.50894 91.8786 5.10884C91.0041 5.60231 90.2268 6.328 89.5563 7.25688L89.2843 4.82824C89.2649 4.67343 89.1385 4.55732 88.9831 4.55732H85.4657C85.3005 4.55732 85.1645 4.69278 85.1645 4.85727V19.3227C85.1645 19.4872 85.3005 19.6226 85.4657 19.6226H89.7701C89.9353 19.6226 90.0713 19.4872 90.0713 19.3227V11.8626C90.664 10.6531 91.3636 9.79195 92.1603 9.30816C92.9765 8.81469 93.8121 8.56312 94.6575 8.56312C95.1822 8.56312 95.6194 8.59215 95.9595 8.65988C96.3093 8.72761 96.7076 8.82437 97.1449 8.95983C97.2226 8.98886 97.3101 8.96951 97.3878 8.9308C97.4558 8.8921 97.5141 8.82437 97.5335 8.73729L98.408 5.14754C98.4566 5.02176 98.3886 4.87662 98.2525 4.81856Z" fill="white"/>
<path d="M111.924 11.8529C112.847 11.3885 113.614 10.7209 114.207 9.8597C114.868 8.91147 115.198 7.69231 115.198 6.23125C115.198 5.06047 114.994 4.06386 114.576 3.26076C114.158 2.45767 113.595 1.80939 112.876 1.32559C112.176 0.851476 111.35 0.503145 110.427 0.299952C109.524 0.106434 108.542 0 107.503 0H100.74C100.575 0 100.439 0.135462 100.439 0.299952V19.3227C100.439 19.4872 100.575 19.6226 100.74 19.6226H105.044C105.21 19.6226 105.346 19.4872 105.346 19.3227V12.7721H107.114L110.69 19.4678C110.738 19.5646 110.845 19.6323 110.962 19.6323H115.791C115.898 19.6323 115.995 19.5743 116.053 19.4775C116.111 19.3807 116.111 19.2646 116.053 19.1776L111.924 11.8529ZM107.163 8.75665H105.355V4.02516H107.163C108.251 4.02516 109.077 4.19932 109.601 4.5283C110.097 4.83793 110.34 5.39913 110.34 6.22158C110.34 7.95356 109.329 8.75665 107.163 8.75665Z" fill="white"/>
<path d="M124.574 4.20898C123.302 4.20898 122.058 4.4025 120.892 4.77986C119.736 5.15722 118.638 5.63134 117.627 6.20221C117.481 6.27962 117.433 6.46346 117.511 6.6086L119.036 9.40492C119.114 9.55006 119.298 9.60811 119.444 9.53071C120.241 9.134 121.008 8.80502 121.708 8.5728C122.388 8.34058 123.068 8.22447 123.729 8.22447C124.652 8.22447 125.342 8.38896 125.789 8.71793C126.139 8.97918 126.362 9.30816 126.469 9.7339C124.885 9.84033 123.506 10.0145 122.369 10.2564C121.135 10.5273 120.105 10.8853 119.308 11.3207C118.492 11.7755 117.889 12.3367 117.511 12.9947C117.132 13.6526 116.947 14.4267 116.947 15.2878C116.947 15.9458 117.073 16.5651 117.306 17.1263C117.549 17.6875 117.889 18.1809 118.327 18.6067C118.764 19.0324 119.298 19.3711 119.93 19.6033C120.552 19.8355 121.251 19.9613 122.029 19.9613C123 19.9613 123.962 19.7581 124.876 19.3711C125.663 19.0324 126.401 18.6163 127.081 18.1325L127.324 19.3711C127.353 19.5162 127.48 19.613 127.625 19.613H131.143C131.308 19.613 131.444 19.4775 131.444 19.313V11.0305C131.444 8.73729 130.822 7.00531 129.588 5.87323C128.364 4.77018 126.683 4.20898 124.574 4.20898ZM126.527 14.8331C126.071 15.1717 125.595 15.4523 125.089 15.6846C124.565 15.9264 124.001 16.0522 123.399 16.0522C122.835 16.0522 122.388 15.9555 122.077 15.762C121.805 15.5975 121.679 15.3459 121.679 14.9879C121.679 14.7363 121.747 14.4944 121.883 14.2719C122.019 14.0493 122.272 13.8461 122.621 13.672C123.01 13.4785 123.544 13.314 124.215 13.1882C124.837 13.0721 125.604 12.9753 126.518 12.9173V14.8331H126.527Z" fill="white"/>
<path d="M143.871 4.20898C142.735 4.20898 141.724 4.45088 140.869 4.91532C140.17 5.30236 139.538 5.75712 138.965 6.26994L138.722 4.81856C138.693 4.67343 138.566 4.56699 138.421 4.56699H134.903C134.738 4.56699 134.602 4.70245 134.602 4.86694V19.3324C134.602 19.4968 134.738 19.6323 134.903 19.6323H139.208C139.373 19.6323 139.509 19.4968 139.509 19.3324V9.80163C139.965 9.35654 140.383 9.02756 140.782 8.79534C141.17 8.5728 141.637 8.45669 142.171 8.45669C142.861 8.45669 143.337 8.64053 143.59 8.99853C143.862 9.39524 144.008 10.0532 144.008 10.9531V19.3227C144.008 19.4872 144.144 19.6226 144.309 19.6226H148.613C148.778 19.6226 148.914 19.4872 148.914 19.3227V10.4015C148.914 8.51474 148.506 7.00531 147.709 5.90226C146.913 4.77986 145.611 4.20898 143.871 4.20898Z" fill="white"/>
<path d="M167.56 19.1582L161.75 10.837L167.094 5.07015C167.171 4.98307 167.201 4.85728 167.152 4.74117C167.103 4.63474 166.997 4.55733 166.87 4.55733H162.158C162.07 4.55733 161.993 4.59603 161.934 4.65409L157.018 9.8984V0.299952C157.018 0.135462 156.882 0 156.717 0H152.412C152.247 0 152.111 0.135462 152.111 0.299952V19.3227C152.111 19.4872 152.247 19.6226 152.412 19.6226H156.717C156.882 19.6226 157.018 19.4872 157.018 19.3227V15.8587L158.825 14.1074L162.391 19.4969C162.449 19.5839 162.546 19.6323 162.644 19.6323H167.298C167.414 19.6323 167.512 19.5646 167.57 19.4678C167.628 19.3711 167.618 19.2453 167.56 19.1582Z" fill="white"/>
<path d="M183.737 19.6323C183.902 19.6323 184.038 19.4968 184.038 19.3323V0.309595C184.038 0.145106 183.902 0.00964355 183.737 0.00964355H169.91C169.745 0.00964355 169.609 0.145106 169.609 0.309595V19.3323C169.609 19.4968 169.745 19.6323 169.91 19.6323H183.737Z" fill="#32C766"/>
</svg>
